<svg id="Layer_1" data-name="Layer 1" xmlns="http://www.w3.org/2000/svg" viewBox="0 0 69.18 28"><defs><style>.cls-1{fill:#0072c6;}.cls-2{fill:#fff;}</style></defs><title>nhs-logotype-blue</title><rect class="cls-1" width="69.18" height="28"/><path class="cls-2" d="M6.76,2.7h7.52L18.9,18.33H19L22.13,2.7h5.68L23,25.24H15.55L10.83,9.65H10.77L7.64,25.24H2Z"/><path class="cls-2" d="M30,2.7h6L34.3,11.32h7.14L43.22,2.7h6L44.57,25.24h-6l2-9.65H33.4l-2,9.65h-6Z"/><path class="cls-2" d="M65.14,7.8a11.32,11.32,0,0,0-5-1c-2.39,0-4.33.35-4.33,2.16,0,3.2,8.75,2,8.75,8.85,0,6.23-5.78,7.85-11,7.85a25.23,25.23,0,0,1-7-1.16L48,19.88a11.75,11.75,0,0,0,5.55,1.29c1.87,0,4.81-.35,4.81-2.68,0-3.62-8.75-2.26-8.75-8.62,0-5.81,5.1-7.56,10-7.56a18.31,18.31,0,0,1,6.91,1Z"/></svg>